<?xml version="1.0" encoding="UTF-8"?>
<svg width="48" height="48" viewBox="0 0 48 48" xmlns="http://www.w3.org/2000/svg">
  <defs>
    <linearGradient id="grad" x1="0%" y1="0%" x2="100%" y2="100%">
      <stop offset="0%" style="stop-color:#9ca3af;stop-opacity:1" />
      <stop offset="100%" style="stop-color:#6b7280;stop-opacity:1" />
    </linearGradient>
  </defs>
  <circle cx="24" cy="24" r="21.12" fill="url(#grad)" />
  <g stroke="white" fill="none" stroke-linecap="round" stroke-linejoin="round">
    <!-- Bridge deck (main roadway) -->
    <line x1="5.76" y1="31.68" x2="42.24" y2="31.68" stroke-width="2.2560000000000002" />
    <!-- Bridge deck support -->
    <line x1="5.76" y1="33.12" x2="42.24" y2="33.12" stroke-width="1.104" />
    
    <!-- Left tower -->
    <line x1="12" y1="33.12" x2="12" y2="11.040000000000001" stroke-width="2.64" />
    <!-- Right tower -->
    <line x1="36" y1="33.12" x2="36" y2="11.040000000000001" stroke-width="2.64" />
    
    <!-- Tower tops -->
    <line x1="10.56" y1="11.040000000000001" x2="13.440000000000001" y2="11.040000000000001" stroke-width="1.488" />
    <line x1="34.56" y1="11.040000000000001" x2="37.44" y2="11.040000000000001" stroke-width="1.488" />
    
    <!-- Main suspension cable -->
    <path d="M 12 12.96 Q 24 23.04 36 12.96" stroke-width="1.104" />
    
    <!-- Vertical suspension cables -->
    <line x1="15.84" y1="16.799999999999997" x2="15.84" y2="31.68" stroke-width="0.768" />
    <line x1="19.68" y1="20.16" x2="19.68" y2="31.68" stroke-width="0.768" />
    <line x1="24" y1="22.080000000000002" x2="24" y2="31.68" stroke-width="0.768" />
    <line x1="28.32" y1="20.16" x2="28.32" y2="31.68" stroke-width="0.768" />
    <line x1="32.160000000000004" y1="16.799999999999997" x2="32.160000000000004" y2="31.68" stroke-width="0.768" />
    
    <!-- Side anchor cables -->
    <line x1="5.76" y1="31.68" x2="12" y2="12.96" stroke-width="0.768" />
    <line x1="42.24" y1="31.68" x2="36" y2="12.96" stroke-width="0.768" />
  </g>
  
</svg>