<?xml version="1.0" encoding="UTF-8"?>
<svg width="128" height="128" viewBox="0 0 128 128" xmlns="http://www.w3.org/2000/svg">
  <defs>
    <linearGradient id="grad" x1="0%" y1="0%" x2="100%" y2="100%">
      <stop offset="0%" style="stop-color:#667eea;stop-opacity:1" />
      <stop offset="100%" style="stop-color:#764ba2;stop-opacity:1" />
    </linearGradient>
  </defs>
  <circle cx="64" cy="64" r="56.32" fill="url(#grad)" />
  <g stroke="white" fill="none" stroke-linecap="round" stroke-linejoin="round">
    <!-- Bridge deck (main roadway) -->
    <line x1="15.36" y1="84.48" x2="112.64" y2="84.48" stroke-width="6.016" />
    <!-- Bridge deck support -->
    <line x1="15.36" y1="88.32" x2="112.64" y2="88.32" stroke-width="2.944" />
    
    <!-- Left tower -->
    <line x1="32" y1="88.32" x2="32" y2="29.44" stroke-width="7.04" />
    <!-- Right tower -->
    <line x1="96" y1="88.32" x2="96" y2="29.44" stroke-width="7.04" />
    
    <!-- Tower tops -->
    <line x1="28.16" y1="29.44" x2="35.84" y2="29.44" stroke-width="3.968" />
    <line x1="92.16" y1="29.44" x2="99.84" y2="29.44" stroke-width="3.968" />
    
    <!-- Main suspension cable -->
    <path d="M 32 34.56 Q 64 61.44 96 34.56" stroke-width="2.944" />
    
    <!-- Vertical suspension cables -->
    <line x1="42.24" y1="44.8" x2="42.24" y2="84.48" stroke-width="2.048" />
    <line x1="52.48" y1="53.76" x2="52.48" y2="84.48" stroke-width="2.048" />
    <line x1="64" y1="58.88" x2="64" y2="84.48" stroke-width="2.048" />
    <line x1="75.52" y1="53.76" x2="75.52" y2="84.48" stroke-width="2.048" />
    <line x1="85.76" y1="44.8" x2="85.76" y2="84.48" stroke-width="2.048" />
    
    <!-- Side anchor cables -->
    <line x1="15.36" y1="84.48" x2="32" y2="34.56" stroke-width="2.048" />
    <line x1="112.64" y1="84.48" x2="96" y2="34.56" stroke-width="2.048" />
  </g>
  
  <circle cx="102.4" cy="102.4" r="15.36" fill="black" />
  <circle cx="102.4" cy="102.4" r="11.52" fill="#fbbf24" />
  
</svg>